<?xml version="1.0" ?>

<!DOCTYPE svg  PUBLIC '-//W3C//DTD SVG 1.1//EN'  'http://www.w3.org/Graphics/SVG/1.1/DTD/svg11.dtd'>

<!-- Uploaded to: SVG Repo, www.svgrepo.com, Generator: SVG Repo Mixer Tools -->
<svg id="main" viewBox="0 0 32 32" enable-background="new 0 0 32 32" version="1.1" xml:space="preserve" xmlns="http://www.w3.org/2000/svg" xmlns:xlink="http://www.w3.org/1999/xlink">


<g id="Layer_19">

<g>

<g>

<path id = "moon" d="M30.9,20.8c-2.2,6.1-8,10.2-14.5,10.2C7.9,31,1,24.2,1,15.8C1,8.7,5.9,2.6,12.9,1c0.3-0.1,0.7,0,1,0.3     c0.2,0.3,0.3,0.7,0.2,1c-0.5,1.4-0.8,2.9-0.8,4.4c0,7.3,6,13.2,13.4,13.2c1,0,2.1-0.1,3.1-0.4c0.3-0.1,0.7,0,1,0.3     C31,20.1,31.1,20.5,30.9,20.8z" fill="#FFC10A"/>

</g>

</g>

</g>



<g id="Wearher"/>

</svg>