<?xml version="1.0" ?>

<!DOCTYPE svg  PUBLIC '-//W3C//DTD SVG 1.1//EN'  'http://www.w3.org/Graphics/SVG/1.1/DTD/svg11.dtd'>

<!-- Uploaded to: SVG Repo, www.svgrepo.com, Generator: SVG Repo Mixer Tools -->
<svg id="main" viewBox="0 0 32 32" enable-background="new 0 0 32 32" version="1.1" xml:space="preserve" xmlns="http://www.w3.org/2000/svg" xmlns:xlink="http://www.w3.org/1999/xlink">

<g id="Layer_16">

<g>

<path id="cloud" d="M31,15c0,4.4-3.5,8.1-8.3,8.9c0,0-0.1,0-0.1,0L19.7,24H8c-3.9,0-7-3.1-7-7s3.1-7,7-7    c1.4,0,2.8,0.4,3.9,1.2C13.5,8.1,17.1,6,21,6C26.5,6,31,10,31,15z" fill="#607C8B"/>

</g>

<g>

<path id="lighting" d="M26.9,16.9l-7.2,13.6c-0.2,0.3-0.5,0.5-0.9,0.5c-0.1,0-0.2,0-0.3,0c-0.5-0.1-0.8-0.6-0.7-1.1l1.1-8.9H14    c-0.4,0-0.7-0.2-0.9-0.5c-0.2-0.3-0.2-0.7,0-1l6-10c0.2-0.4,0.7-0.6,1.1-0.5c0.4,0.1,0.7,0.5,0.7,1v5.4h5c0.3,0,0.7,0.2,0.9,0.5    S27,16.6,26.9,16.9z" fill="#FFC10A"/>

</g>

</g>

<g id="Wearher"/>

</svg>